#!OML:ASF F:\VICON\USERDATA\INSTALL\rory3\rory3.ASF
:FULLY-SPECIFIED
:DEGREES
174
root -13.4208 17.828 12.1175 -5.72003 44.9876 -4.32131
lowerback 12.4626 0.420895 0.486036
upperback 1.65149 0.764847 1.81396
thorax -5.27325 0.398873 1.49826
lowerneck -20.3597 -5.68705 -12.4129
upperneck 30.5275 -6.22433 7.80952
head 14.6404 -2.96828 4.20343
rclavicle -6.17475e-014 3.20043e-014
rhumerus -37.5231 -14.1407 -76.7946
rradius 26.2951
rwrist 7.359
rhand -15.621 8.26354
rfingers 7.12502
rthumb 10.5658 -21.4509
lclavicle -6.17475e-014 3.20043e-014
lhumerus -30.7599 -1.75449 87.8567
lradius 45.5513
lwrist -1.91738
lhand -18.7 24.5223
lfingers 7.12502
lthumb 7.59472 54.3659
rfemur -4.49653 2.31874 16.3239
rtibia 21.6332
rfoot -12.7769 5.53412
rtoes -12.7317
lfemur -17.4135 -7.94127 -14.3247
ltibia 53.5144
lfoot -3.17991 -17.4964
ltoes -8.6336
175
root -13.4152 17.8382 12.201 -5.66757 46.1559 -4.34318
lowerback 12.4755 0.492132 0.581071
upperback 1.62074 0.867004 1.70998
thorax -5.31206 0.446351 1.31806
lowerneck -19.894 -5.59859 -12.0022
upperneck 30.186 -6.09636 7.27707
head 14.3286 -2.93922 3.92408
rclavicle 6.37105e-014 -1.63997e-014
rhumerus -37.4437 -13.8293 -76.868
rradius 26.3124
rwrist 7.60829
rhand -15.634 8.22996
rfingers 7.12502
rthumb 10.5532 -21.4851
lclavicle 6.37105e-014 -1.63997e-014
lhumerus -30.9104 -1.58914 87.6146
lradius 45.047
lwrist -1.78517
lhand -18.7408 23.8745
lfingers 7.12502
lthumb 7.55536 53.7195
rfemur -3.94593 1.87885 16.4846
rtibia 21.2991
rfoot -12.8854 4.68152
rtoes -13.3425
lfemur -18.2958 -7.02537 -14.2186
ltibia 53.3848
lfoot -4.06883 -16.3887
ltoes -9.35274
176
root -13.4083 17.8518 12.2875 -5.66022 47.2954 -4.33339
lowerback 12.6751 0.605985 0.703984
upperback 1.50949 1.02851 1.52959
thorax -5.53762 0.520879 1.03002
lowerneck -19.5483 -5.54326 -11.7912
upperneck 30.2623 -6.08662 7.17461
head 14.2719 -2.92608 3.85409
rclavicle 3.02774e-014 -7.65321e-015
rhumerus -37.554 -13.6946 -76.9295
rradius 26.2945
rwrist 7.79089
rhand -16.0473 8.2735
rfingers 7.12502
rthumb 10.1545 -21.4614
lclavicle 3.02774e-014 -7.65321e-015
lhumerus -31.2561 -1.69384 87.3017
lradius 44.6086
lwrist -1.55794
lhand -19.2127 24.8802
lfingers 7.12502
lthumb 7.0998 54.7411
rfemur -3.29282 1.60623 16.6698
rtibia 20.9114
rfoot -12.9724 3.66398
rtoes -14.3025
lfemur -19.0248 -6.0751 -14.1744
ltibia 53.0667
lfoot -4.7238 -15.5382
ltoes -9.00302
177
root -13.3999 17.8667 12.3745 -5.82687 48.4747 -4.62552
lowerback 12.7415 0.681327 0.923365
upperback 1.48087 1.15789 1.47441
thorax -5.60099 0.579144 0.825011
lowerneck -19.554 -5.54441 -11.7821
upperneck 30.4946 -6.13471 7.31648
head 14.3874 -2.92387 3.91237
rclavicle -1.18463e-014 1.55052e-014
rhumerus -37.422 -13.4506 -76.9922
rradius 26.1895
rwrist 7.89463
rhand -16.5232 8.34328
rfingers 7.12502
rthumb 9.69543 -21.4136
lclavicle -1.18463e-014 1.55052e-014
lhumerus -31.5182 -1.76497 87.0343
lradius 44.2105
lwrist -1.3318
lhand -20.0272 25.9882
lfingers 7.12502
lthumb 6.31352 55.8741
rfemur -2.69225 1.35675 17.072
rtibia 20.5445
rfoot -13.0245 2.6709
rtoes -13.9505
lfemur -19.7428 -5.23925 -13.9527
ltibia 52.6027
lfoot -5.61127 -14.6073
ltoes -8.22983
178
root -13.3892 17.8758 12.4574 -5.84467 49.7279 -4.74503
lowerback 12.8191 0.731998 1.0396
upperback 1.43556 1.24216 1.44104
thorax -5.6895 0.617384 0.708528
lowerneck -19.47 -5.56539 -11.8655
upperneck 30.5018 -6.14274 7.33857
head 14.3783 -2.93215 3.9363
rclavicle 1.24831e-013 2.1419e-014
rhumerus -37.1767 -13.2102 -76.9153
rradius 26.0182
rwrist 7.76338
rhand -16.319 8.40636
rfingers 7.12502
rthumb 9.89243 -21.3412
lclavicle 1.24831e-013 2.1419e-014
lhumerus -31.8645 -1.8681 86.8393
lradius 43.9101
lwrist -1.11133
lhand -20.4859 26.6903
lfingers 7.12502
lthumb 5.87074 56.589
rfemur -2.09115 0.965269 17.3042
rtibia 20.132
rfoot -13.0704 1.73028
rtoes -12.9629
lfemur -20.481 -4.53878 -13.9227
ltibia 51.986
lfoot -6.27032 -13.6451
ltoes -7.26232
179
root -13.3734 17.8797 12.5394 -5.74212 51.0096 -4.79581
lowerback 12.8291 0.763058 1.19259
upperback 1.32441 1.3016 1.36402
thorax -5.80761 0.641078 0.530097
lowerneck -19.3138 -5.52717 -12.0639
upperneck 30.615 -6.11867 7.61228
head 14.4109 -2.90721 4.09718
rclavicle -4.39935e-014 1.26725e-014
rhumerus -37.1387 -13.0134 -76.7689
rradius 26.0737
rwrist 7.49215
rhand -15.9121 8.1624
rfingers 7.12502
rthumb 10.285 -21.5661
lclavicle -4.39935e-014 1.26725e-014
lhumerus -32.0154 -1.67509 86.587
lradius 43.2171
lwrist -1.24006
lhand -20.3013 27.0215
lfingers 7.12502
lthumb 6.04893 56.9152
rfemur -1.56748 0.462331 17.4566
rtibia 19.7281
rfoot -13.19 0.903677
rtoes -12.5218
lfemur -21.2951 -3.87716 -13.9808
ltibia 51.2509
lfoot -6.72632 -12.9064
ltoes -6.65195
180
root -13.3529 17.8851 12.624 -6.00326 52.252 -5.28561
lowerback 12.8169 0.737296 1.63894
upperback 1.22214 1.32558 1.26519
thorax -5.89663 0.639796 0.169732
lowerneck -19.2338 -5.50753 -12.171
upperneck 30.7884 -6.16657 7.93751
head 14.4945 -2.89489 4.25317
rclavicle -7.52555e-014 -9.96408e-015
rhumerus -37.2511 -12.8244 -76.803
rradius 26.3313
rwrist 7.18553
rhand -16.0151 7.96969
rfingers 7.12502
rthumb 10.1856 -21.7637
lclavicle -7.52555e-014 -9.96408e-015
lhumerus -32.0068 -1.41416 86.0963
lradius 42.2917
lwrist -1.56183
lhand -20.2429 26.8152
lfingers 7.12502
lthumb 6.10535 56.7072
rfemur -1.06683 -0.0541821 17.9192
rtibia 19.4028
rfoot -13.4119 0.0822079
rtoes -12.5305
lfemur -22.055 -3.2751 -13.7537
ltibia 50.4078
lfoot -7.15212 -12.3784
ltoes -6.4474
181
root -13.3323 17.8891 12.7072 -6.20002 53.4304 -5.66482
lowerback 12.703 0.783499 1.83126
upperback 1.22779 1.41038 1.24774
thorax -5.82159 0.677455 0.0298738
lowerneck -19.2204 -5.55632 -12.2655
upperneck 30.7574 -6.24169 8.06858
head 14.4978 -2.91756 4.31043
rclavicle 9.3362e-014 -1.58158e-014
rhumerus -37.1898 -12.8983 -76.6378
rradius 26.5243
rwrist 7.05365
rhand -16.3223 7.95894
rfingers 7.12502
rthumb 9.88924 -21.7888
lclavicle 9.3362e-014 -1.58158e-014
lhumerus -32.0591 -1.23201 85.7209
lradius 41.6804
lwrist -2.08011
lhand -20.3126 26.6499
lfingers 7.12502
lthumb 6.03801 56.5439
rfemur -0.598635 -0.424517 18.3106
rtibia 19.1182
rfoot -13.553 -0.800048
rtoes -12.0917
lfemur -22.7615 -2.66028 -13.6575
ltibia 49.4592
lfoot -7.60009 -11.7251
ltoes -6.40317
182
root -13.3103 17.8898 12.7858 -6.27635 54.6693 -5.88389
lowerback 12.5012 0.900932 1.79737
upperback 1.29912 1.56218 1.34849
thorax -5.63612 0.756688 0.132572
lowerneck -19.2672 -5.65233 -12.4188
upperneck 30.6844 -6.31068 8.06628
head 14.493 -2.96132 4.31991
rclavicle -5.24543e-014 1.64494e-014
rhumerus -37.0071 -13.235 -76.0854
rradius 26.6284
rwrist 7.10301
rhand -16.3597 7.73225
rfingers 7.12502
rthumb 9.85312 -22.0172
lclavicle -5.24543e-014 1.64494e-014
lhumerus -32.1993 -1.09446 85.6187
lradius 41.4092
lwrist -2.61156
lhand -19.7517 27.2928
lfingers 7.12502
lthumb 6.57956 57.1706
rfemur -0.128526 -0.818798 18.5662
rtibia 18.8207
rfoot -13.705 -1.65291
rtoes -11.5239
lfemur -23.4511 -2.05449 -13.7269
ltibia 48.4131
lfoot -8.03046 -11.1054
ltoes -7.14388
